<mxfile host="app.diagrams.net" modified="2020-08-24T01:14:27.797Z" agent="5.0 (Windows NT 10.0; Win64; x64) AppleWebKit/537.36 (KHTML, like Gecko) Chrome/84.0.4147.135 Safari/537.36" etag="2wQcxEKFJ_7F4qOU1Dn-" version="13.6.3" type="github">
  <diagram id="C5RBs43oDa-KdzZeNtuy" name="Page-1">
    <mxGraphModel dx="1102" dy="592" grid="1" gridSize="10" guides="1" tooltips="1" connect="1" arrows="1" fold="1" page="1" pageScale="1" pageWidth="827" pageHeight="1169" math="0" shadow="0">
      <root>
        <mxCell id="WIyWlLk6GJQsqaUBKTNV-0" />
        <mxCell id="WIyWlLk6GJQsqaUBKTNV-1" parent="WIyWlLk6GJQsqaUBKTNV-0" />
        <mxCell id="PeS1Z0UZdLXKTZlHd_E6-6" style="edgeStyle=orthogonalEdgeStyle;rounded=0;orthogonalLoop=1;jettySize=auto;html=1;exitX=1;exitY=0.5;exitDx=0;exitDy=0;entryX=0.5;entryY=0;entryDx=0;entryDy=0;fontStyle=1" edge="1" parent="WIyWlLk6GJQsqaUBKTNV-1" source="PeS1Z0UZdLXKTZlHd_E6-1" target="PeS1Z0UZdLXKTZlHd_E6-5">
          <mxGeometry relative="1" as="geometry" />
        </mxCell>
        <mxCell id="PeS1Z0UZdLXKTZlHd_E6-1" value="&lt;span&gt;REPORTS FROM PLAYERS&lt;/span&gt;" style="rounded=1;whiteSpace=wrap;html=1;fontStyle=1;fillColor=#f5f5f5;strokeColor=#666666;fontColor=#333333;" vertex="1" parent="WIyWlLk6GJQsqaUBKTNV-1">
          <mxGeometry x="40" y="120" width="120" height="60" as="geometry" />
        </mxCell>
        <mxCell id="PeS1Z0UZdLXKTZlHd_E6-7" style="edgeStyle=orthogonalEdgeStyle;rounded=0;orthogonalLoop=1;jettySize=auto;html=1;exitX=1;exitY=0.5;exitDx=0;exitDy=0;entryX=0;entryY=0.5;entryDx=0;entryDy=0;fontStyle=1" edge="1" parent="WIyWlLk6GJQsqaUBKTNV-1" source="PeS1Z0UZdLXKTZlHd_E6-2" target="PeS1Z0UZdLXKTZlHd_E6-5">
          <mxGeometry relative="1" as="geometry" />
        </mxCell>
        <mxCell id="PeS1Z0UZdLXKTZlHd_E6-2" value="FIND BY YOURSELF" style="rounded=1;whiteSpace=wrap;html=1;fontStyle=1;fillColor=#f5f5f5;strokeColor=#666666;fontColor=#333333;" vertex="1" parent="WIyWlLk6GJQsqaUBKTNV-1">
          <mxGeometry x="40" y="220" width="120" height="60" as="geometry" />
        </mxCell>
        <mxCell id="PeS1Z0UZdLXKTZlHd_E6-8" style="edgeStyle=orthogonalEdgeStyle;rounded=0;orthogonalLoop=1;jettySize=auto;html=1;exitX=1;exitY=0.5;exitDx=0;exitDy=0;entryX=0.5;entryY=1;entryDx=0;entryDy=0;fontStyle=1" edge="1" parent="WIyWlLk6GJQsqaUBKTNV-1" source="PeS1Z0UZdLXKTZlHd_E6-3" target="PeS1Z0UZdLXKTZlHd_E6-5">
          <mxGeometry relative="1" as="geometry" />
        </mxCell>
        <mxCell id="PeS1Z0UZdLXKTZlHd_E6-3" value="LIVEPLAY SUBMISSIONS" style="rounded=1;whiteSpace=wrap;html=1;fontStyle=1;fillColor=#f5f5f5;strokeColor=#666666;fontColor=#333333;" vertex="1" parent="WIyWlLk6GJQsqaUBKTNV-1">
          <mxGeometry x="40" y="330" width="120" height="60" as="geometry" />
        </mxCell>
        <mxCell id="PeS1Z0UZdLXKTZlHd_E6-10" style="edgeStyle=orthogonalEdgeStyle;rounded=0;orthogonalLoop=1;jettySize=auto;html=1;exitX=1;exitY=0.5;exitDx=0;exitDy=0;fontStyle=1" edge="1" parent="WIyWlLk6GJQsqaUBKTNV-1" source="PeS1Z0UZdLXKTZlHd_E6-5" target="PeS1Z0UZdLXKTZlHd_E6-9">
          <mxGeometry relative="1" as="geometry" />
        </mxCell>
        <mxCell id="PeS1Z0UZdLXKTZlHd_E6-5" value="ANALZYE THE REPLAY/LIVEPLAY" style="shape=hexagon;perimeter=hexagonPerimeter2;whiteSpace=wrap;html=1;fixedSize=1;fontStyle=1;fillColor=#ffe6cc;strokeColor=#d79b00;" vertex="1" parent="WIyWlLk6GJQsqaUBKTNV-1">
          <mxGeometry x="260" y="210" width="150" height="80" as="geometry" />
        </mxCell>
        <mxCell id="PeS1Z0UZdLXKTZlHd_E6-12" style="edgeStyle=orthogonalEdgeStyle;rounded=0;orthogonalLoop=1;jettySize=auto;html=1;exitX=1;exitY=0.5;exitDx=0;exitDy=0;entryX=0;entryY=0.5;entryDx=0;entryDy=0;fontStyle=1" edge="1" parent="WIyWlLk6GJQsqaUBKTNV-1" source="PeS1Z0UZdLXKTZlHd_E6-9" target="PeS1Z0UZdLXKTZlHd_E6-11">
          <mxGeometry relative="1" as="geometry" />
        </mxCell>
        <mxCell id="PeS1Z0UZdLXKTZlHd_E6-9" value="REPLAY WATCHERS MAKE THE DECISIONS" style="shape=hexagon;perimeter=hexagonPerimeter2;whiteSpace=wrap;html=1;fixedSize=1;fontStyle=1;fillColor=#fff2cc;strokeColor=#d6b656;" vertex="1" parent="WIyWlLk6GJQsqaUBKTNV-1">
          <mxGeometry x="470" y="210" width="210" height="80" as="geometry" />
        </mxCell>
        <mxCell id="PeS1Z0UZdLXKTZlHd_E6-17" style="edgeStyle=orthogonalEdgeStyle;rounded=0;orthogonalLoop=1;jettySize=auto;html=1;exitX=0.5;exitY=0;exitDx=0;exitDy=0;entryX=0.461;entryY=1.013;entryDx=0;entryDy=0;entryPerimeter=0;fontStyle=1" edge="1" parent="WIyWlLk6GJQsqaUBKTNV-1" source="PeS1Z0UZdLXKTZlHd_E6-11" target="PeS1Z0UZdLXKTZlHd_E6-15">
          <mxGeometry relative="1" as="geometry" />
        </mxCell>
        <mxCell id="PeS1Z0UZdLXKTZlHd_E6-18" style="edgeStyle=orthogonalEdgeStyle;rounded=0;orthogonalLoop=1;jettySize=auto;html=1;exitX=0.5;exitY=1;exitDx=0;exitDy=0;entryX=0.5;entryY=0;entryDx=0;entryDy=0;fontStyle=1" edge="1" parent="WIyWlLk6GJQsqaUBKTNV-1" source="PeS1Z0UZdLXKTZlHd_E6-11" target="PeS1Z0UZdLXKTZlHd_E6-16">
          <mxGeometry relative="1" as="geometry" />
        </mxCell>
        <mxCell id="PeS1Z0UZdLXKTZlHd_E6-11" value="REPORTS TO THE COMMUNITY MANAGER OR CHAT MODERATORS" style="shape=process;whiteSpace=wrap;html=1;backgroundOutline=1;fontStyle=1;fillColor=#e1d5e7;strokeColor=#9673a6;" vertex="1" parent="WIyWlLk6GJQsqaUBKTNV-1">
          <mxGeometry x="770" y="210" width="290" height="80" as="geometry" />
        </mxCell>
        <mxCell id="PeS1Z0UZdLXKTZlHd_E6-20" style="edgeStyle=orthogonalEdgeStyle;rounded=0;orthogonalLoop=1;jettySize=auto;html=1;exitX=1;exitY=0.5;exitDx=0;exitDy=0;entryX=0.5;entryY=0;entryDx=0;entryDy=0;fontStyle=1" edge="1" parent="WIyWlLk6GJQsqaUBKTNV-1" source="PeS1Z0UZdLXKTZlHd_E6-15" target="PeS1Z0UZdLXKTZlHd_E6-19">
          <mxGeometry relative="1" as="geometry" />
        </mxCell>
        <mxCell id="PeS1Z0UZdLXKTZlHd_E6-15" value="BANNED/RESTRICT" style="shape=step;perimeter=stepPerimeter;whiteSpace=wrap;html=1;fixedSize=1;fillColor=#f8cecc;strokeColor=#b85450;fontStyle=1" vertex="1" parent="WIyWlLk6GJQsqaUBKTNV-1">
          <mxGeometry x="830" y="40" width="180" height="80" as="geometry" />
        </mxCell>
        <mxCell id="PeS1Z0UZdLXKTZlHd_E6-21" style="edgeStyle=orthogonalEdgeStyle;rounded=0;orthogonalLoop=1;jettySize=auto;html=1;exitX=1;exitY=0.5;exitDx=0;exitDy=0;entryX=0.5;entryY=1;entryDx=0;entryDy=0;fontStyle=1" edge="1" parent="WIyWlLk6GJQsqaUBKTNV-1" source="PeS1Z0UZdLXKTZlHd_E6-16" target="PeS1Z0UZdLXKTZlHd_E6-19">
          <mxGeometry relative="1" as="geometry" />
        </mxCell>
        <mxCell id="PeS1Z0UZdLXKTZlHd_E6-16" value="DONT BANNED?" style="shape=step;perimeter=stepPerimeter;whiteSpace=wrap;html=1;fixedSize=1;fillColor=#dae8fc;strokeColor=#6c8ebf;fontStyle=1" vertex="1" parent="WIyWlLk6GJQsqaUBKTNV-1">
          <mxGeometry x="830" y="390" width="190" height="80" as="geometry" />
        </mxCell>
        <mxCell id="PeS1Z0UZdLXKTZlHd_E6-19" value="REPORTS TO DISCORD CHANNEL" style="shape=hexagon;perimeter=hexagonPerimeter2;whiteSpace=wrap;html=1;fixedSize=1;fontStyle=1;fillColor=#f9f7ed;strokeColor=#36393d;" vertex="1" parent="WIyWlLk6GJQsqaUBKTNV-1">
          <mxGeometry x="1181" y="200" width="249" height="100" as="geometry" />
        </mxCell>
        <mxCell id="PeS1Z0UZdLXKTZlHd_E6-22" value="DIRECT MESSAGE TO SUSPICOUS USERS" style="rounded=1;whiteSpace=wrap;html=1;fillColor=#bac8d3;strokeColor=#23445d;fontStyle=1" vertex="1" parent="WIyWlLk6GJQsqaUBKTNV-1">
          <mxGeometry x="440" y="70" width="160" height="60" as="geometry" />
        </mxCell>
        <mxCell id="PeS1Z0UZdLXKTZlHd_E6-24" value="" style="endArrow=classic;html=1;exitX=0.5;exitY=1;exitDx=0;exitDy=0;entryX=1;entryY=0.25;entryDx=0;entryDy=0;" edge="1" parent="WIyWlLk6GJQsqaUBKTNV-1" source="PeS1Z0UZdLXKTZlHd_E6-22" target="PeS1Z0UZdLXKTZlHd_E6-5">
          <mxGeometry relative="1" as="geometry">
            <mxPoint x="500" y="170" as="sourcePoint" />
            <mxPoint x="740" y="230" as="targetPoint" />
            <Array as="points">
              <mxPoint x="480" y="180" />
            </Array>
          </mxGeometry>
        </mxCell>
        <mxCell id="PeS1Z0UZdLXKTZlHd_E6-25" value="OPTIONAL" style="edgeLabel;resizable=0;html=1;align=center;verticalAlign=middle;" connectable="0" vertex="1" parent="PeS1Z0UZdLXKTZlHd_E6-24">
          <mxGeometry relative="1" as="geometry" />
        </mxCell>
      </root>
    </mxGraphModel>
  </diagram>
</mxfile>
